<svg width="495" height="328" viewBox="0 0 495 328" fill="none" xmlns="http://www.w3.org/2000/svg">
<g clip-path="url(#clip0_11161_35525)">
<mask id="mask0_11161_35525" style="mask-type:luminance" maskUnits="userSpaceOnUse" x="0" y="0" width="495" height="328">
<path d="M495 0H0V328H495V0Z" fill="white"/>
</mask>
<g mask="url(#mask0_11161_35525)">
<path d="M459.632 261.855C452.486 303.598 444.282 311.41 439.362 315.782C438.985 317.341 435.048 316.347 423.328 316.621C352.792 316.62 61.1512 316.673 61.0451 316.673C61.0555 316.683 41.8106 294.301 38.2305 261.057C38.325 208.879 75.1276 209.511 121.216 176.457C147.047 158.766 159.697 101.189 184.879 75.0557C208.28 51.2367 254.69 34.9518 297.961 71.4538C330.259 90.7293 331.913 162.353 378.254 182.852C435.902 205.645 460.972 223.674 459.632 261.855Z" fill="url(#paint0_linear_11161_35525)"/>
<mask id="mask1_11161_35525" style="mask-type:luminance" maskUnits="userSpaceOnUse" x="38" y="50" width="422" height="267">
<path d="M459.541 261.762C452.396 303.505 444.153 311.36 439.232 315.732C438.855 317.291 434.918 316.297 423.199 316.57C352.663 316.57 61.0187 316.623 60.9126 316.623C60.9231 316.632 41.6922 294.255 38.1123 261.028C38.1765 208.81 74.9449 209.377 121.062 176.417C146.918 158.768 159.646 101.332 184.792 75.1628C208.144 51.3314 254.462 35.0298 297.698 71.4087C330.069 90.6536 331.74 162.14 378.056 182.678C435.707 205.552 460.898 223.566 459.541 261.762Z" fill="white"/>
</mask>
<g mask="url(#mask1_11161_35525)">
<path d="M356.396 13.8491C439.68 102.506 491.761 191.581 421.85 233.843C256.771 333.634 295.883 366.861 295.883 366.861C295.883 366.861 310.212 389.5 335.521 356.7C360.829 323.9 375.906 315.534 459.179 291.373C542.453 267.213 535.754 153.482 535.754 153.482M264.992 383.974C264.992 383.974 278.019 284.861 171.203 283.791C64.3872 282.721 3.3496 277.73 -14.5151 209.634C-32.3797 141.539 72.2179 172.358 168.605 219.34C264.992 266.321 374.041 225.321 348.361 94.4779C322.68 -36.3655 175.855 -51.8742 190.742 -4.10032C205.63 43.6736 354.874 132.804 285.533 195.997C220.048 255.676 -44.4756 -4.10032 -44.4756 -4.10032" stroke="white" stroke-width="7" stroke-miterlimit="10"/>
<path d="M264.992 383.974C264.992 383.974 278.019 284.861 171.203 283.791C64.3872 282.721 3.3496 277.73 -14.5151 209.634C-32.3797 141.539 72.2179 172.358 168.605 219.34C264.992 266.321 374.041 225.321 348.361 94.4779C322.68 -36.3655 175.855 -51.8742 190.742 -4.10032C205.63 43.6736 354.874 132.804 285.533 195.997C220.048 255.676 -44.4756 -4.10032 -44.4756 -4.10032" stroke="white" stroke-width="7" stroke-miterlimit="10"/>
</g>
<path d="M21.003 213.085C14.2538 221.893 8.94902 265.643 39.9377 271.73C39.9377 271.73 52.4616 274.42 55.5421 289.061C58.623 303.703 80.7414 327.462 104.771 313.146C128.799 298.831 116.727 266.937 104.972 257.272C93.2172 247.606 94.8749 247.308 88.4198 237.071C81.9647 226.834 81.3129 226.191 75.3229 228.659C69.3326 231.127 75.0681 245.166 81.5628 252.863C88.0571 260.561 81.3667 265.56 78.7412 264.259C76.116 262.957 73.6477 251.498 59.772 250.696C45.8963 249.894 44.1378 235.269 42.9428 227C42.4602 223.659 41.2712 220.569 40.0261 218.072C39.3234 218.731 38.423 219.124 37.4432 219.112C35.2523 219.086 33.5072 217.049 33.5456 214.563C33.5672 213.16 34.1534 211.913 35.0533 211.098C33.7117 210.185 31.3513 208.9 28.6556 208.867C26.2104 208.838 23.4902 209.839 21.003 213.085Z" fill="url(#paint1_linear_11161_35525)"/>
<g style="mix-blend-mode:overlay" opacity="0.34">
<path d="M109.65 309.559C108.238 306.834 106.549 304.268 104.332 301.699C100.321 294.167 99.4392 287.046 98.5808 280.101C97.5204 271.527 96.5193 263.429 89.9784 255.117C80.1597 242.64 78.6727 232.203 78.5707 227.566C78.1558 227.646 77.7105 227.772 77.2277 227.935C77.3642 232.912 79.0312 243.315 88.9225 255.885C95.2483 263.923 96.229 271.856 97.2675 280.254C98.0017 286.193 98.7514 292.258 101.406 298.611C94.0495 291.491 81.9288 283.858 59.7408 272.359C37.9536 261.067 29.9552 243.809 27.0819 231.321C24.8907 221.798 25.2585 213.525 25.6802 209.395C25.2182 209.567 24.7539 209.786 24.2902 210.062C23.9003 214.495 23.6976 222.47 25.779 231.548C28.7056 244.311 36.8643 261.947 59.1099 273.476C84.4001 286.583 96.4472 294.724 103.147 302.277C104.559 304.925 106.349 307.628 108.65 310.394L108.659 310.387C108.663 310.394 108.666 310.402 108.67 310.409C109.008 310.132 109.337 309.852 109.656 309.567L109.65 309.559Z" fill="#033A39"/>
</g>
<path d="M28.6482 209.506C18.7534 218.214 32.2505 234.532 44.5281 242.033C56.8062 249.535 62.6121 255.999 66.1764 287.582C69.741 319.164 95.0943 317.052 100.883 315.536C106.671 314.019 117.491 299.026 111.133 278.319C104.774 257.612 92.1996 257.525 95.0691 233.537C97.9387 209.549 80.5553 217.378 75.0431 226.016C69.531 234.654 65.0931 233.299 57.4019 223.445C54.9206 220.266 52.9733 217.839 51.4698 216.004C51.3073 217.098 51.058 218.125 50.6507 218.991C50.3774 219.572 49.9266 220.016 49.3881 220.293C48.6038 220.695 47.6335 220.742 46.7568 220.336C45.2767 219.651 44.621 217.938 45.2924 216.511C45.7978 215.435 45.8655 212.642 45.91 210.794C45.9187 210.425 45.9277 210.079 45.9379 209.748C44.0858 208.1 40.2158 205.377 35.4599 206.088C33.3328 206.405 31.0291 207.41 28.6482 209.506Z" fill="url(#paint2_linear_11161_35525)"/>
<g style="mix-blend-mode:overlay" opacity="0.34">
<path d="M84.4214 218.348C82.1378 227.027 76.2003 254.645 84.6963 281.246C82.7517 277.339 80.7825 272.969 78.8389 268.087C65.813 235.375 34.2648 216.217 26.6236 211.962C26.3996 212.328 26.1966 212.7 26.0294 213.083C33.5827 217.291 64.7635 236.231 77.6223 268.526C88.4469 295.71 99.9579 307.541 105.63 312.074C105.91 311.763 106.19 311.433 106.467 311.084C104.782 309.727 102.539 307.688 99.9293 304.733C97.0935 301.522 93.5274 296.871 89.6723 290.396C75.6377 260.646 83.6097 226.259 85.9015 217.884C85.4113 218.005 84.9166 218.161 84.4214 218.348Z" fill="#033A39"/>
</g>
<path d="M92.8151 306.469L90.7391 307.422L51.8149 229.539L74.7829 188.455L76.8113 189.496L54.3945 229.595L92.8151 306.469Z" fill="#253138"/>
<path d="M50.3851 231.263C51.3632 232.702 53.3741 233.109 54.8762 232.172C56.3787 231.235 56.8033 229.309 55.8252 227.87C54.8468 226.431 52.8363 226.024 51.3338 226.961C49.8316 227.898 49.407 229.824 50.3851 231.263Z" fill="#1C5C5B"/>
<path d="M72.6967 190.91C73.6748 192.349 75.6853 192.756 77.1874 191.819C78.6899 190.882 79.115 188.956 78.1365 187.517C77.1584 186.078 75.1471 185.671 73.645 186.607C72.1429 187.545 71.7186 189.471 72.6967 190.91Z" fill="#125151"/>
<path d="M96.2759 186.715L85.2467 205.9L76.4282 199.302L73.7887 197.324C72.2144 196.144 71.7663 194.044 72.7317 192.367L77.6557 183.814C78.6204 182.138 80.7128 181.38 82.5938 182.026L85.7487 183.107L96.2759 186.715Z" fill="#00A19F"/>
<path d="M96.2759 186.715L85.2467 205.9L76.4282 199.302L85.7487 183.107L96.2759 186.715Z" fill="#038583" fill-opacity="0.2"/>
<path d="M117.792 193.138L102.406 219.89C101.402 221.636 98.9954 222.089 97.3757 220.838L84.7692 211.094C80.9659 208.155 79.9126 203.024 82.2711 198.924L88.5327 188.036C90.8912 183.936 95.9808 182.048 100.607 183.556L115.94 188.559C117.91 189.201 118.796 191.392 117.792 193.138Z" fill="#00A19F"/>
<path d="M111.099 314.161H71.7373C73.1404 307.281 79.4336 302.316 86.7518 302.316H96.0846C103.402 302.316 109.696 307.281 111.099 314.161Z" fill="url(#paint3_linear_11161_35525)"/>
<path d="M407.66 276.457L404.433 315.33H382.107L378.88 276.457H407.66Z" fill="url(#paint4_linear_11161_35525)"/>
<path d="M379.693 286.295L381.465 307.636H405.078L406.849 286.301L379.693 286.295Z" fill="url(#paint5_linear_11161_35525)"/>
<path d="M385.15 297.057C385.15 301.165 388.621 304.495 392.901 304.495C397.182 304.495 400.652 301.165 400.652 297.057C400.652 292.949 397.182 289.619 392.901 289.619C388.621 289.619 385.15 292.949 385.15 297.057Z" fill="url(#paint6_linear_11161_35525)"/>
<g style="mix-blend-mode:overlay" opacity="0.66">
<path d="M391.612 298.305C392.144 297.795 392.273 297.44 392.424 297.028C392.592 296.566 392.782 296.043 393.484 295.371C394.186 294.699 394.732 294.516 395.214 294.355C395.528 294.25 395.812 294.155 396.15 293.912C395.432 293.284 394.441 293.016 393.34 293.155C392.239 293.295 391.153 293.831 390.281 294.666C389.409 295.501 388.849 296.542 388.704 297.596C388.597 298.367 388.719 299.081 389.047 299.679C389.52 299.336 389.918 299.202 390.28 299.081C390.71 298.937 391.081 298.814 391.612 298.305Z" fill="#E3EBF7"/>
<path d="M395.56 295.307C395.13 295.451 394.759 295.575 394.228 296.084C393.696 296.593 393.567 296.949 393.417 297.361C393.248 297.822 393.058 298.345 392.356 299.017C391.654 299.69 391.108 299.872 390.627 300.034C390.312 300.139 390.028 300.234 389.69 300.477C390.284 300.996 391.065 301.27 391.94 301.27C392.123 301.27 392.31 301.258 392.5 301.234C393.601 301.094 394.687 300.558 395.559 299.723C396.43 298.888 396.991 297.847 397.137 296.792C397.243 296.022 397.122 295.307 396.793 294.71C396.32 295.053 395.922 295.186 395.56 295.307Z" fill="#E3EBF7"/>
</g>
<path d="M408.648 279.199H377.403C376.97 279.199 376.618 278.863 376.618 278.448V274.284C376.618 273.869 376.97 273.532 377.403 273.532H408.648C409.082 273.532 409.433 273.869 409.433 274.284V278.448C409.433 278.863 409.082 279.199 408.648 279.199Z" fill="white"/>
<path d="M407.184 273.532H378.867L380.217 269.53C380.399 268.99 380.923 268.624 381.516 268.624H404.535C405.127 268.624 405.652 268.99 405.834 269.53L407.184 273.532Z" fill="#F8EDE0"/>
<path d="M396.489 270.79H390.139C389.52 270.79 389.019 270.309 389.019 269.717V268.624H397.608V269.717C397.608 270.309 397.107 270.79 396.489 270.79Z" fill="#E7CCAC"/>
<path d="M402.886 237.058C404.67 241.485 403.888 246.605 401.948 249.968C398.957 254.871 397.476 256.904 396.485 262.212C395.583 259.184 395.296 254.667 398.764 248.993C401.848 243.89 401.968 242.91 402.886 237.058Z" fill="white" fill-opacity="0.7"/>
<path d="M388.254 233.667C390.038 238.094 389.255 243.214 387.315 246.577C384.325 251.48 382.843 253.513 381.852 258.821C380.951 255.793 380.663 251.276 384.132 245.602C387.215 240.5 387.335 239.52 388.254 233.667Z" fill="white" fill-opacity="0.7"/>
<path d="M396.197 232.788C398.385 238.219 397.425 244.5 395.046 248.625C391.377 254.639 389.56 257.133 388.344 263.644C387.238 259.931 386.886 254.389 391.14 247.429C394.923 241.17 395.07 239.967 396.197 232.788Z" fill="white" fill-opacity="0.7"/>
<path d="M277.965 190.906C277.965 190.906 256.601 195.841 243.498 205.711C230.395 215.582 221.397 265.756 221.397 265.756C221.397 265.756 214.081 267.401 215.387 273.981C215.387 273.981 227.613 272.386 233.95 284.937C235.496 287.981 236.68 291.863 237.264 296.798C237.264 296.798 243.722 296.403 244.134 291.041C244.134 291.041 249.938 285.48 251.364 274.968C251.398 274.771 251.432 274.59 251.45 274.392C251.45 274.392 252.094 303.115 248.865 313.874L339.259 313.934L358.12 313.874C358.12 313.874 359.899 308.607 358.902 305.117C358.902 305.117 365.536 296.353 358.781 285.761C358.781 285.761 360.275 226.061 351.689 211.881C343.102 197.7 299.963 189.475 299.963 189.475L277.965 190.906Z" fill="url(#paint7_linear_11161_35525)"/>
<g style="mix-blend-mode:multiply">
<path d="M251.259 274.896C249.834 285.407 244.03 290.968 244.03 290.968C243.617 296.331 237.16 296.726 237.16 296.726C236.576 291.791 235.391 287.908 233.846 284.865C237.263 281.706 241.145 276.82 243.394 269.665C247.945 255.254 245.043 239.593 244.837 238.475C248.546 251.948 250.572 268.48 251.259 274.896Z" fill="#3050BB" fill-opacity="0.3"/>
</g>
<g style="mix-blend-mode:multiply">
<path d="M358.677 285.689C358.677 285.689 339.676 275.596 326.213 285.145C326.683 275.32 326.509 253.264 317.668 233.399C317.668 233.399 319.6 273.703 302.427 285.013C285.254 296.322 256.059 294.06 248.761 313.801H358.016C359.101 310.341 359.274 307.371 358.798 305.045C358.798 305.045 365.432 297.194 358.677 285.689Z" fill="#3050BB" fill-opacity="0.3"/>
</g>
<path d="M307.333 302.299C307.333 302.299 326.79 289.261 347.709 293.91C366.354 298.054 363.134 310.971 358.016 313.801H305.725L307.333 302.299Z" fill="#C9917F"/>
<path d="M307.751 302.539C307.751 302.539 298.488 298.064 290.897 292.824C290.115 292.284 289.149 292.057 288.196 292.187C284.651 292.674 275.632 294.002 269.417 295.707C268.61 295.928 268.072 296.669 268.144 297.471C268.232 298.441 268.516 299.745 269.342 300.805C269.342 300.805 271.053 302.415 273.324 303.43C273.324 303.43 272.567 304.658 272.551 305.237C272.536 305.817 273.425 307.667 274.502 308.071C274.502 308.071 274.185 308.644 274.433 309.578C274.68 310.512 275.704 311.844 276.487 311.95C277.27 312.058 278.693 311.977 278.693 311.977C278.693 311.977 278.117 313.152 278.218 313.938C278.318 314.723 279.738 315.89 280.641 316.058C281.544 316.226 287.676 315.252 288.836 314.817C289.996 314.383 292.278 311.512 292.278 311.512C292.278 311.512 301.834 314.859 309.357 313.861L307.751 302.539Z" fill="#E4A08E"/>
<path d="M268.936 300.189L278.326 298.561C278.326 298.561 275.072 301.539 273.32 303.443C273.32 303.443 269.525 301.695 268.936 300.189Z" fill="#C9917F"/>
<path d="M292.273 311.503L288.79 310.503L284.448 313.79C284.448 313.79 288.12 311.106 291.734 312.152L292.273 311.503Z" fill="#C9917F"/>
<path d="M290.755 292.724C290.755 292.724 288.799 301.985 292.744 305.911C296.688 309.837 309.359 313.85 309.359 313.85C309.359 313.85 308.576 308.33 307.753 302.533C307.753 302.533 296.176 296.629 290.755 292.724Z" fill="#C9917F"/>
<path d="M274.57 307.953L281.923 301.852C282.133 301.678 282.451 301.7 282.633 301.902C282.816 302.104 282.793 302.409 282.583 302.584C282.572 302.593 282.559 302.602 282.548 302.611L274.663 308.066C274.63 308.089 274.583 308.082 274.559 308.05C274.536 308.019 274.541 307.977 274.57 307.953Z" fill="#C9917F"/>
<path d="M278.653 311.936L285.512 305.802C285.716 305.619 286.038 305.63 286.229 305.827C286.421 306.024 286.409 306.332 286.204 306.515C286.192 306.525 286.18 306.536 286.167 306.545L278.722 312.015C278.698 312.032 278.665 312.027 278.647 312.005C278.63 311.983 278.633 311.954 278.653 311.936Z" fill="#E4A08E"/>
<path d="M215.282 274.216L186.902 309.114L214.608 309.037L237.16 297.034C237.16 297.034 242.114 272.476 215.282 274.216Z" fill="#E4A08E"/>
<path d="M208.517 308.77C208.32 308.794 189.997 309.454 189.997 309.454C189.997 309.454 188.435 299.67 188.708 299.719C188.982 299.768 203.087 296.969 203.834 297.07C204.581 297.171 209.976 307.698 209.976 307.698L208.517 308.77Z" fill="#645757"/>
<path d="M211.339 304.383L207.505 305.864C206.242 306.353 205.537 307.649 205.844 308.921C206.04 309.73 206.872 310.243 207.722 310.076L211.332 309.368L212.685 309.168C213.339 309.071 213.875 308.618 214.055 308.008C214.298 307.189 214.6 306.132 214.609 305.903C214.625 305.518 211.608 298.018 211.608 298.018L211.339 304.383Z" fill="#C9917F"/>
<path d="M188.614 296.365L189.487 296.175C189.92 296.08 190.311 295.854 190.598 295.529L191.553 294.453C191.953 294 192.546 293.745 193.165 293.758L194.331 293.781C194.968 293.795 195.575 293.524 195.976 293.049L196.542 292.378C196.989 291.847 197.692 291.576 198.399 291.661L200.672 291.934C201.036 291.977 201.406 291.927 201.743 291.788L204.517 290.643C204.517 290.643 211.556 292.919 211.939 300.349L211.58 303.789C211.496 304.589 210.873 305.241 210.048 305.391L207.275 305.896C206.646 306.01 206.029 305.645 205.855 305.054L204.469 300.361L205.302 305.119C205.45 305.963 204.89 306.772 204.021 306.971L201.851 307.465C200.929 307.676 200.005 307.122 199.8 306.236L198.427 300.328L199.239 306.465C199.347 307.278 198.746 308.021 197.897 308.124L195.854 308.373C195.138 308.46 194.463 308.034 194.263 307.369L192.234 300.616L193.685 307.314C193.827 307.972 193.42 308.625 192.748 308.816L191.001 309.313C190.238 309.53 189.436 309.124 189.192 308.4L186.683 300.926C186.442 300.208 186.456 299.434 186.721 298.724L187.134 297.622C187.371 296.989 187.929 296.515 188.614 296.365Z" fill="#C9917F"/>
<path d="M303.854 191.907C300.248 202.417 294.332 216.885 281.289 216.579C269.9 216.313 271.685 203.256 274.108 196.111C274.468 195.049 274.231 195.649 274.504 194.945C273.296 188.269 272.87 181.396 272.266 174.612C282.483 170.432 292.729 166.399 302.891 162.047C302.93 163.583 302.938 163.66 302.946 165.356C302.954 167.052 302.923 162.197 302.943 166.443C302.963 170.689 303.107 185.49 303.854 191.907Z" fill="#E4A08E"/>
<path d="M274.238 195.595C274.175 195.987 274.419 195.085 274.491 194.982C273.311 188.224 272.863 181.417 272.266 174.612C282.496 170.408 292.701 166.445 302.914 162.007C302.914 162.007 303.252 162.239 302.492 167.231C300.869 174.349 292.444 201.063 274.238 195.595Z" fill="#B67268"/>
<path d="M250.667 107.836C250.137 110.59 249.604 115.576 251.892 118.368C247.397 116.195 248.071 116.065 244.456 113.322C240.533 110.345 241.384 128.039 242.364 131.076C243.345 134.112 245.009 143.203 249.97 144.526C252.19 151.443 256.99 156.436 261.468 159.025C267.594 162.567 278.393 161.748 288.211 160.947C292.413 160.604 296.435 160.265 299.834 160.271C300.467 159.534 301.057 158.903 301.625 158.322C301.73 159.402 301.9 160.407 302.17 160.621C302.803 161.122 303.126 167.824 303.126 167.824C303.126 167.824 305.105 161.593 304.939 158.494C304.858 156.986 304.801 155.911 304.763 155.202C305.69 154.239 306.638 153.153 307.691 151.69C310.299 148.066 312.384 141.711 313.36 136.729C313.857 138.497 314.124 139.805 314.124 139.805C314.487 133.076 314.131 129.992 313.667 128.602C313.135 126.61 311.854 125.082 309.24 124.63C312.606 119.626 307.174 111.771 307.174 111.771C307.646 113.827 307.461 116.246 307.145 118.199C306.786 116.605 306.257 115.088 304.947 113.675C301.364 108.044 288.122 106.406 288.122 106.406C288.937 106.665 290.446 107.798 292.07 109.169C286.446 109.035 280.01 110.27 273.879 112.379C267.968 114.412 257.1 109.117 252.871 106.849C252.626 106.717 252.365 106.659 252.11 106.664C251.432 106.676 250.802 107.133 250.667 107.836Z" fill="url(#paint8_linear_11161_35525)"/>
<path d="M300.382 156.741C295.433 152.546 293.617 144.341 297.361 140.45C292.119 145.899 277.191 144.424 277.191 144.424C277.191 144.424 280.699 143.078 281.409 139.673C281.409 139.673 264.777 143.069 261.709 145.206C261.709 145.206 261.414 142.161 264.589 139.546C260.345 139.946 256.914 140.869 256.717 142.799C256.189 147.97 260.126 177.994 270.847 184.881C281.569 191.769 293.325 180.53 297.883 175.003C302.44 169.476 300.348 167.538 302.802 162.841C306.573 161.344 308.099 161.847 308.74 154.892C309.381 147.937 303.066 145.963 300.382 156.741Z" fill="#E4A08E"/>
<path d="M235.291 309.037H136.988C136.394 309.037 135.913 309.498 135.913 310.067V313.139C135.913 313.708 136.394 314.169 136.988 314.169H235.291C235.885 314.169 236.366 313.708 236.366 313.139V310.067C236.366 309.498 235.885 309.037 235.291 309.037Z" fill="#116261"/>
<path d="M162.222 238.441H78.8918C75.1204 238.441 72.5282 242.103 73.8978 245.497L98.2377 305.814C99.0397 307.802 101.023 309.11 103.232 309.11H189.503C191.86 309.11 193.479 306.822 192.624 304.702L167.216 241.738C166.414 239.75 164.431 238.441 162.222 238.441Z" fill="#87C1C0"/>
<path d="M78.3668 239.903C74.6439 239.903 72.0851 243.489 73.4369 246.812L97.4656 305.879C98.2572 307.825 100.215 309.107 102.396 309.107H187.562C189.889 309.107 191.488 306.866 190.643 304.789L165.561 243.132C164.769 241.185 162.811 239.903 160.63 239.903H78.3668Z" fill="url(#paint9_linear_11161_35525)"/>
<g style="mix-blend-mode:overlay" opacity="0.66">
<path d="M135.801 275.049C137.801 279.715 136.694 284.57 133.328 285.894C129.962 287.218 125.613 284.509 123.613 279.844C121.613 275.179 122.721 270.324 126.086 269C129.452 267.676 133.801 270.384 135.801 275.049Z" fill="#D4E9E9"/>
</g>
<path d="M191.785 309.037H101.27C100.679 309.037 100.2 309.496 100.2 310.062V313.144C100.2 313.71 100.679 314.169 101.27 314.169H191.785C192.376 314.169 192.855 313.71 192.855 313.144V310.062C192.855 309.496 192.376 309.037 191.785 309.037Z" fill="#21CECC"/>
<path d="M459.346 319.631H41.1816V314.108H459.346V319.631ZM459.346 319.631H366.611V314.108H459.346V319.631Z" fill="#00A19F"/>
<path d="M459.346 319.631H366.611V314.108H459.346V319.631Z" fill="#0F7170"/>
<path d="M335.843 309.585H247.688V314.109H335.843V309.585ZM308.653 309.585H335.843V314.109H308.653V309.585Z" fill="#098280"/>
<path d="M308.653 309.585H335.844V314.109H308.653V309.585Z" fill="#00A19F"/>
</g>
</g>
<defs>
<linearGradient id="paint0_linear_11161_35525" x1="242.788" y1="173.539" x2="285.634" y2="367.774" gradientUnits="userSpaceOnUse">
<stop offset="0.01" stop-color="#B5E3E3"/>
<stop offset="0.41" stop-color="#E6F4F4"/>
<stop offset="1" stop-color="#E6F4F4"/>
</linearGradient>
<linearGradient id="paint1_linear_11161_35525" x1="99.8698" y1="309.284" x2="34.5604" y2="222.637" gradientUnits="userSpaceOnUse">
<stop stop-color="#B5E3E3"/>
<stop offset="0.41" stop-color="#B5E3E3"/>
<stop offset="1" stop-color="#A6D2D2"/>
</linearGradient>
<linearGradient id="paint2_linear_11161_35525" x1="102.85" y1="318.213" x2="54.5075" y2="264.53" gradientUnits="userSpaceOnUse">
<stop stop-color="#759797"/>
<stop offset="0.41" stop-color="#B5E3E3"/>
<stop offset="1" stop-color="#92BCBC"/>
</linearGradient>
<linearGradient id="paint3_linear_11161_35525" x1="76.997" y1="316.551" x2="100.625" y2="300.4" gradientUnits="userSpaceOnUse">
<stop stop-color="#666666"/>
<stop offset="0.41" stop-color="#414141"/>
<stop offset="1" stop-color="#1C1C1C"/>
</linearGradient>
<linearGradient id="paint4_linear_11161_35525" x1="393.405" y1="275.311" x2="393.373" y2="316.806" gradientUnits="userSpaceOnUse">
<stop stop-color="#F1DBC1"/>
<stop offset="0.41" stop-color="#ECCDB7"/>
<stop offset="1" stop-color="#E7BFAD"/>
</linearGradient>
<linearGradient id="paint5_linear_11161_35525" x1="393.256" y1="285.822" x2="393.437" y2="307.554" gradientUnits="userSpaceOnUse">
<stop stop-color="#00A19F"/>
<stop offset="0.41" stop-color="#00A19F"/>
<stop offset="1" stop-color="#37CDCB"/>
</linearGradient>
<linearGradient id="paint6_linear_11161_35525" x1="386.159" y1="299.883" x2="400.172" y2="292.326" gradientUnits="userSpaceOnUse">
<stop offset="0.01" stop-color="#C69C6D"/>
<stop offset="0.41" stop-color="#A97F53"/>
<stop offset="1" stop-color="#8C6239"/>
</linearGradient>
<linearGradient id="paint7_linear_11161_35525" x1="307.758" y1="232.639" x2="195.484" y2="232.026" gradientUnits="userSpaceOnUse">
<stop stop-color="#00A19F"/>
<stop offset="0.41" stop-color="#1EB6B4"/>
<stop offset="1" stop-color="#106F6E"/>
</linearGradient>
<linearGradient id="paint8_linear_11161_35525" x1="312.013" y1="135.165" x2="247.886" y2="120.586" gradientUnits="userSpaceOnUse">
<stop stop-color="#5E3434"/>
<stop offset="0.41" stop-color="#4F2C2C"/>
<stop offset="1" stop-color="#3F2323"/>
</linearGradient>
<linearGradient id="paint9_linear_11161_35525" x1="121.682" y1="236.965" x2="124.694" y2="311.968" gradientUnits="userSpaceOnUse">
<stop stop-color="#00A19F"/>
<stop offset="0.41" stop-color="#2AB6B4"/>
<stop offset="1" stop-color="#208281"/>
</linearGradient>
<clipPath id="clip0_11161_35525">
<rect width="495" height="328" fill="white"/>
</clipPath>
</defs>
</svg>
