<svg width="800" height="500" viewBox="0 0 800 500" fill="none" xmlns="http://www.w3.org/2000/svg">
<g clip-path="url(#clip0_9053_34795)">
<mask id="mask0_9053_34795" style="mask-type:luminance" maskUnits="userSpaceOnUse" x="0" y="0" width="800" height="500">
<path d="M800 0H0V500H800V0Z" fill="white"/>
</mask>
<g mask="url(#mask0_9053_34795)">
<g opacity="0.3">
<path d="M723.204 391.283H632.808C642.483 382.392 648.652 368.928 648.652 353.856V342.781C648.652 310.698 671.976 284.688 700.748 284.688C730.242 284.688 754.152 258.027 754.152 225.138C754.152 192.249 730.242 165.587 700.748 165.587H691.999C663.227 165.587 639.903 139.578 639.903 107.495C639.903 80.7225 620.44 59.0186 596.431 59.0186H256.755C230.032 59.0186 208.368 83.1746 208.368 112.974C208.368 133.345 218.493 151.078 233.437 160.26H173.769C148.885 160.26 128.712 181.078 128.712 206.758C128.712 237.532 104.538 262.48 74.7169 262.48H65.6489C35.0799 262.48 10.2979 288.054 10.2979 319.601C10.2979 351.148 35.0799 376.722 65.6489 376.722C95.4698 376.722 119.644 401.67 119.644 432.444V443.067C119.644 468.747 139.817 489.565 164.701 489.565H374.361C375.943 489.718 377.545 489.799 379.167 489.799H723.204C750.408 489.799 772.462 467.745 772.462 440.541C772.462 413.337 750.408 391.283 723.204 391.283Z" fill="#9BC1F9"/>
</g>
<path d="M782.144 488.847H42.3276V493.865H782.144V488.847Z" fill="#042A44"/>
<path d="M150.527 290.792L154.132 282.265L150.04 281.291C149.145 281.078 148.591 280.18 148.804 279.284C149.017 278.389 149.915 277.836 150.811 278.049L155.531 279.171L158.749 271.516L154.379 270.477C153.483 270.264 152.93 269.365 153.143 268.47C153.356 267.574 154.253 267.021 155.149 267.234L160.147 268.423L163.903 259.646C164.222 258.9 165.031 258.492 165.821 258.679L166.584 258.861C167.586 259.099 168.133 260.179 167.734 261.128L164.258 269.4L171.504 271.123L175.26 262.346C175.579 261.6 176.388 261.192 177.178 261.38L178.01 261.578C179.012 261.816 179.561 262.896 179.162 263.845L175.686 272.117L179.778 273.089C180.673 273.302 181.227 274.201 181.014 275.096C180.801 275.992 179.902 276.545 179.007 276.332L174.288 275.21L171.138 282.882L175.509 283.921C176.405 284.134 176.958 285.032 176.745 285.928C176.532 286.823 175.633 287.377 174.738 287.164L169.741 285.976L165.916 295.019C165.599 295.769 164.787 296.18 163.995 295.992L163.103 295.779C162.101 295.541 161.552 294.459 161.953 293.509L165.559 284.982L158.313 283.259L154.489 292.302C154.172 293.052 153.36 293.463 152.568 293.275L151.676 293.062C150.673 292.824 150.126 291.742 150.527 290.792ZM166.957 281.887L170.176 274.232L162.929 272.51L159.711 280.165L166.957 281.887Z" fill="#50BFA5"/>
<path d="M331.595 159.262L332.143 154.129L328.226 150.768C327.78 150.385 327.968 149.657 328.542 149.536L333.593 148.472L335.58 143.708C335.807 143.165 336.556 143.118 336.849 143.628L339.423 148.102L344.567 148.52C345.153 148.568 345.43 149.265 345.036 149.701L341.575 153.532L342.769 158.553C342.905 159.125 342.325 159.605 341.788 159.365L337.077 157.257L332.669 159.943C332.167 160.249 331.532 159.847 331.595 159.262Z" fill="#50BFA5"/>
<path d="M185.225 168.678L183.943 163.677L179.097 161.9C178.545 161.697 178.465 160.949 178.962 160.635L183.32 157.87L183.514 152.712C183.536 152.124 184.222 151.818 184.675 152.193L188.652 155.483L193.616 154.073C194.181 153.913 194.686 154.47 194.47 155.016L192.568 159.816L195.444 164.102C195.772 164.59 195.397 165.242 194.81 165.206L189.659 164.88L186.47 168.939C186.107 169.401 185.371 169.247 185.225 168.678Z" fill="#F7CC7F"/>
<path d="M354.249 74.6688L351.916 65.5794L343.107 62.3478C342.104 61.9796 341.958 60.621 342.861 60.0481L350.785 55.0214L351.136 45.6445C351.176 44.5772 352.424 44.0179 353.248 44.6991L360.476 50.6821L369.503 48.1191C370.53 47.8272 371.448 48.8414 371.054 49.8346L367.597 58.5579L372.825 66.3513C373.42 67.2387 372.74 68.4236 371.673 68.3567L362.307 67.7655L356.511 75.1452C355.851 75.9851 354.514 75.7035 354.249 74.6688Z" fill="#F48C7F"/>
<g opacity="0.3">
<path d="M624.427 121.545C625.756 142.769 609.664 161.054 588.485 162.386C567.306 163.718 549.058 147.593 547.729 126.369C546.4 105.145 562.492 86.8601 583.671 85.5281C604.85 84.1961 623.098 100.321 624.427 121.545Z" fill="#7DA8E9"/>
</g>
<path d="M558.921 123.2V124.29H544.755V123.2H558.921Z" fill="#184655"/>
<path d="M627.49 123.2V124.29H613.324V123.2H627.49Z" fill="#184655"/>
<path d="M586.563 97.0329H585.475V82.8389H586.563V97.0329Z" fill="#184655"/>
<path d="M586.563 165.469H585.475V151.275H586.563V165.469Z" fill="#184655"/>
<path d="M587.251 123.957C587.251 124.606 586.726 125.132 586.078 125.132C585.43 125.132 584.905 124.606 584.905 123.957C584.905 123.308 585.43 122.782 586.078 122.782C586.726 122.782 587.251 123.308 587.251 123.957Z" fill="#184655"/>
<path d="M587.225 124.614C587.343 124.678 587.437 124.788 587.476 124.927L595.772 153.578C595.853 153.856 595.693 154.148 595.414 154.229C595.136 154.31 594.846 154.15 594.765 153.872L586.469 125.222C586.388 124.943 586.549 124.651 586.827 124.57C586.966 124.529 587.108 124.549 587.225 124.614Z" fill="#184655"/>
<path d="M563.476 124.786C563.541 124.713 563.633 124.663 563.738 124.656L585.398 123.185C585.608 123.171 585.79 123.329 585.804 123.539C585.819 123.749 585.66 123.932 585.45 123.946L563.79 125.417C563.58 125.431 563.398 125.273 563.384 125.063C563.377 124.958 563.412 124.86 563.476 124.786Z" fill="#184655"/>
<path d="M586.078 78.9883C561.294 78.9883 541.203 99.1223 541.203 123.957C541.203 148.792 561.294 168.926 586.078 168.926C610.862 168.926 630.953 148.792 630.953 123.957C630.953 99.1223 610.862 78.9883 586.078 78.9883ZM588.485 162.386C567.306 163.718 549.058 147.593 547.729 126.369C546.4 105.145 562.492 86.8603 583.671 85.5283C604.85 84.1963 623.098 100.321 624.427 121.545C625.756 142.769 609.664 161.054 588.485 162.386Z" fill="#184655"/>
<path d="M606.318 72.8254L604.569 66.0082L597.961 63.583C597.209 63.3068 597.099 62.289 597.776 61.8593L603.72 58.089L603.983 51.0549C604.013 50.2535 604.95 49.835 605.567 50.3461L610.99 54.8337L617.761 52.9104C618.532 52.691 619.22 53.4519 618.924 54.1974L616.331 60.7418L620.253 66.587C620.699 67.2523 620.188 68.1422 619.388 68.0912L612.364 67.6476L608.016 73.1827C607.521 73.8137 606.517 73.6021 606.318 72.8254Z" fill="#F7CC7F"/>
<path d="M648.638 216.432L651.186 210.407L648.295 209.72C647.662 209.57 647.271 208.934 647.421 208.301C647.571 207.668 648.207 207.279 648.84 207.429L652.174 208.222L654.448 202.812L651.359 202.078C650.726 201.928 650.337 201.293 650.487 200.66C650.637 200.027 651.271 199.637 651.904 199.787L655.436 200.627L658.089 194.425C658.315 193.898 658.887 193.61 659.445 193.742L659.983 193.871C660.691 194.039 661.079 194.802 660.797 195.473L658.341 201.317L663.461 202.535L666.114 196.333C666.34 195.806 666.912 195.518 667.47 195.65L668.058 195.791C668.765 195.959 669.153 196.722 668.871 197.392L666.415 203.237L669.306 203.925C669.939 204.075 670.33 204.709 670.18 205.342C670.03 205.975 669.394 206.366 668.761 206.216L665.427 205.423L663.201 210.843L666.29 211.577C666.923 211.727 667.314 212.362 667.164 212.995C667.014 213.628 666.378 214.019 665.745 213.869L662.214 213.029L659.512 219.42C659.289 219.949 658.715 220.24 658.156 220.107L657.525 219.956C656.816 219.788 656.429 219.022 656.712 218.352L659.26 212.327L654.139 211.11L651.438 217.5C651.215 218.03 650.641 218.32 650.081 218.187L649.45 218.037C648.742 217.868 648.354 217.103 648.638 216.432ZM660.248 210.14L662.522 204.732L657.402 203.515L655.127 208.924L660.248 210.14Z" fill="#07345A"/>
<path d="M581.888 236.918L577.397 234.013L572.456 236.066C571.894 236.3 571.307 235.786 571.464 235.198L572.839 230.028L569.36 225.964C568.964 225.501 569.271 224.784 569.88 224.751L575.221 224.462L578.012 219.897C578.329 219.377 579.106 219.447 579.325 220.016L581.251 225.008L586.454 226.25C587.046 226.392 587.219 227.153 586.747 227.537L582.595 230.91L583.021 236.243C583.069 236.851 582.399 237.249 581.888 236.918Z" fill="#F48C7F"/>
<path d="M228.038 332.156C226.666 332.153 225.55 333.734 225.545 335.689C225.54 337.644 226.648 339.231 228.02 339.234C229.392 339.237 230.508 337.656 230.513 335.701C230.518 333.746 229.41 332.159 228.038 332.156ZM228.035 333.156C228.771 333.158 229.367 333.525 229.366 333.978C229.365 334.431 228.767 334.797 228.031 334.795C227.295 334.793 226.699 334.425 226.7 333.972C226.701 333.519 227.299 333.154 228.035 333.156ZM228.024 337.906C226.986 337.903 226.144 337.336 226.146 336.638C226.148 335.94 226.992 335.375 228.03 335.378C229.068 335.381 229.909 335.949 229.907 336.647C229.905 337.345 229.062 337.909 228.024 337.906Z" fill="#466EB6"/>
<path d="M222.4 339.972C221.879 341.097 221.605 342.32 221.602 343.559L221.539 369.473C221.535 371.038 222.813 372.31 224.394 372.314L239.212 372.35C240.793 372.354 242.078 371.088 242.082 369.523L242.145 343.609C242.148 342.37 241.881 341.146 241.365 340.018L222.4 339.972Z" fill="#7F1CA0"/>
<path d="M222.4 339.972C221.879 341.097 221.605 342.32 221.602 343.559L221.539 369.473C221.535 371.038 222.813 372.31 224.394 372.314L239.212 372.35C240.793 372.354 242.078 371.088 242.082 369.523L242.145 343.609C242.148 342.37 241.881 341.146 241.365 340.018L222.4 339.972Z" fill="#7F1CA0"/>
<path d="M242.147 343.608L242.084 369.524C242.08 371.087 240.793 372.355 239.214 372.351L224.396 372.315C222.813 372.311 221.537 371.037 221.541 369.474L221.604 343.558C221.607 342.321 221.88 341.099 222.401 339.973L241.365 340.019C241.881 341.147 242.15 342.371 242.147 343.608Z" fill="#F47458"/>
<path d="M225.468 369.483L225.531 343.569C225.534 342.33 225.808 341.107 226.329 339.982L222.4 339.972C221.879 341.097 221.605 342.32 221.602 343.559L221.539 369.473C221.535 371.038 222.813 372.31 224.394 372.314L228.323 372.324C226.742 372.32 225.464 371.048 225.468 369.483Z" fill="#F48C7F"/>
<path d="M242.147 343.608L242.083 369.524C242.079 371.087 240.793 372.354 239.214 372.35L233.155 372.335C234.751 372.339 236.051 371.073 236.055 369.509L236.119 343.593C236.122 342.356 235.848 341.132 235.329 340.004L241.364 340.019C241.88 341.147 242.15 342.371 242.147 343.608Z" fill="#B75742"/>
<path d="M241.365 340.018L222.397 339.972C222.399 339.144 223.08 338.474 223.917 338.476L239.853 338.515C240.69 338.517 241.367 339.19 241.365 340.018Z" fill="#13375B"/>
<path d="M242.095 364.407L221.551 364.357L221.543 367.577L242.087 367.627L242.095 364.407Z" fill="#355389"/>
<path d="M203.733 331.629H205.999C205.628 331.376 205.164 331.224 204.66 331.224H147.898C144.928 331.224 142.521 333.357 142.521 335.99V339.018C142.521 341.651 144.928 343.784 147.898 343.784L204.025 343.768L203.733 331.629Z" fill="#86B1F2"/>
<path d="M171.508 331.234C168.668 331.234 166.366 333.274 166.366 335.792V339.214C166.366 341.732 168.668 343.772 171.508 343.772H206.844V343.007H206.698L197.715 342.253L195.899 335.939C195.899 335.939 199.403 332.449 199.632 332.359C199.861 332.269 206.698 331.996 206.698 331.996L206.844 331.995V331.234H171.508Z" fill="#466EB6"/>
<path d="M204.553 337.481C204.553 333.789 206.705 332 206.705 332H172.232C169.623 332 167.509 333.875 167.509 336.187V338.821C167.509 341.133 169.623 343.008 172.232 343.008H206.705C206.705 343.008 204.553 342.129 204.553 337.481Z" fill="#FAE0B2"/>
<g style="mix-blend-mode:multiply">
<path d="M167.509 336.187V338.821C167.509 339.167 167.558 339.503 167.647 339.825C168.81 337.303 171.038 334.875 175.28 334.094C185.184 332.271 206.705 332.001 206.705 332.001H172.232C169.623 332.001 167.509 333.875 167.509 336.187Z" fill="#DAEEF7"/>
</g>
<path d="M202.799 356.735H205.364C204.944 356.418 204.419 356.228 203.848 356.228H139.604C136.243 356.228 133.518 358.899 133.518 362.194V365.984C133.518 369.279 136.243 371.95 139.604 371.95L203.13 371.929L202.799 356.735Z" fill="#50BFA5"/>
<path d="M166.326 356.241C163.112 356.241 160.506 358.796 160.506 361.947V366.229C160.506 369.38 163.112 371.935 166.326 371.935H206.32V370.977H206.155L195.987 370.033L193.932 362.13C193.932 362.13 197.898 357.763 198.157 357.65C198.416 357.537 206.155 357.195 206.155 357.195L206.32 357.194V356.241H166.326Z" fill="#3C8F7C"/>
<path d="M203.726 364.06C203.726 359.439 206.162 357.199 206.162 357.199H167.146C164.194 357.199 161.8 359.546 161.8 362.44V365.736C161.8 368.63 164.194 370.977 167.146 370.977H206.162C206.162 370.977 203.726 369.878 203.726 364.06Z" fill="#FAE0B2"/>
<g style="mix-blend-mode:multiply">
<path d="M161.8 362.441V365.737C161.8 366.17 161.855 366.591 161.956 366.994C163.272 363.838 165.794 360.798 170.595 359.82C181.804 357.538 206.162 357.2 206.162 357.2H167.146C164.194 357.2 161.8 359.547 161.8 362.441Z" fill="#DAEEF7"/>
</g>
<path d="M131.401 344.156H128.835C129.255 343.904 129.78 343.753 130.351 343.753H194.62C197.983 343.753 200.709 345.872 200.709 348.487V351.495C200.709 354.11 197.983 356.229 194.62 356.229L131.07 356.212L131.401 344.156Z" fill="#F47458"/>
<path d="M167.887 343.764C171.103 343.764 173.71 345.792 173.71 348.292V351.69C173.71 354.19 171.103 356.218 167.887 356.218H127.878V355.457H128.044L138.215 354.708L140.271 348.437C140.271 348.437 136.303 344.971 136.044 344.882C135.785 344.793 128.044 344.522 128.044 344.522L127.878 344.52V343.764H167.887Z" fill="#B75742"/>
<path d="M130.474 349.968C130.474 346.301 128.037 344.524 128.037 344.524H167.069C170.023 344.524 172.417 346.385 172.417 348.682V351.298C172.417 353.595 170.023 355.456 167.069 355.456H128.037C128.037 355.456 130.474 354.585 130.474 349.968Z" fill="#FAE0B2"/>
<g style="mix-blend-mode:multiply">
<path d="M172.417 348.682V351.297C172.417 351.641 172.362 351.975 172.261 352.295C170.945 349.79 168.422 347.378 163.619 346.602C152.405 344.791 128.037 344.523 128.037 344.523H167.069C170.023 344.523 172.417 346.385 172.417 348.682Z" fill="#DAEEF7"/>
</g>
<path d="M265.356 371.922H104.286V380.241H115.278L84.9258 489.542H91.4738L108.714 427.459H146.668V489.542H153.462V427.459H207.996L187.795 489.542H194.429L229.993 380.241H242.755V489.542H249.549V380.241H265.356V371.922ZM110.735 420.18L121.826 380.241H146.668V420.18H110.735ZM210.364 420.18H153.462V380.241H223.359L210.364 420.18Z" fill="#184655"/>
<path d="M476.36 11.362C449.919 15.5369 430.563 32.0898 433.128 48.3331C434.41 56.4548 440.93 62.9607 450.435 66.9153L443.485 92.5589L463.128 70.3754C470.047 71.4332 477.717 71.4365 485.649 70.184C512.091 66.009 531.446 49.4563 528.881 33.2129C526.316 16.9696 502.802 7.187 476.36 11.362Z" fill="#FAE0B2"/>
<path d="M463.337 46.5435C467.143 55.062 477.133 58.8809 485.649 55.0742C494.165 51.2675 497.984 41.2755 494.178 32.757C490.372 24.2385 480.382 20.4196 471.866 24.2263C463.349 28.033 459.531 38.025 463.337 46.5435Z" fill="#F7CC7F"/>
<path d="M488.094 38.408C490.129 42.9624 488.087 48.3041 483.534 50.3394C478.981 52.3747 473.64 50.333 471.605 45.7785L488.094 38.408Z" fill="#EFEFEF"/>
<path d="M320.997 235.479L296.355 217.427L291.791 190.848C291.505 189.184 289.926 188.067 288.262 188.353L215.419 200.862C213.755 201.148 212.639 202.727 212.925 204.39L221.287 253.09C221.573 254.754 223.153 255.871 224.816 255.585L297.659 243.077C299.322 242.791 300.439 241.211 300.153 239.548L299.374 235.004L320.997 235.479Z" fill="#F47458"/>
<path d="M271.711 215.446L264.604 216.482C264.604 216.482 254.581 211.277 253.92 208.965C253.261 206.654 253.906 201.426 252.418 201.027C250.931 200.628 247.917 200.614 246.575 204.038C245.601 206.525 248.077 214.61 247.336 215.299C246.871 215.731 242.804 216.441 239.823 216.913C237.863 217.222 236.24 218.594 235.606 220.475L235.603 220.479C235.174 221.75 235.695 223.148 236.849 223.831L238.646 224.893L237.673 226.75C236.948 228.132 237.476 229.84 238.854 230.573L240.258 231.319L239.564 232.433C238.669 233.867 239.217 235.76 240.74 236.493L241.977 237.089L241.861 237.423C241.378 238.813 242.036 240.342 243.378 240.944L244.614 241.5L263.543 238.739C265.316 238.48 267.019 237.862 268.544 236.922L275.041 234.85C275.74 234.627 276.17 233.928 276.053 233.204L273.386 216.676C273.257 215.877 272.511 215.329 271.711 215.446Z" fill="white"/>
<path d="M341.201 488.928L335.176 487.786L361.211 349.692L367.236 350.834L341.201 488.928Z" fill="#184655"/>
<path d="M541.038 489.556H548.286L521.277 349.692L515.252 350.834L541.038 489.556Z" fill="#184655"/>
<path d="M408.351 489.556H415.599L388.59 349.692L382.565 350.834L408.351 489.556Z" fill="#184655"/>
<path d="M475.004 489.556L469.119 489.627L495.013 350.319L501.039 351.461L475.004 489.556Z" fill="#184655"/>
<path d="M448.716 161.328C472.576 163.883 503.453 166.579 534.451 219.182C568.33 276.674 550.496 362.553 523.756 386.418C497.016 410.283 409.684 439.75 336.269 395.636C336.269 395.636 291.94 368.902 314.69 324.534C349.699 256.257 344.753 242.019 360.406 215.262C376.059 188.505 398.069 155.904 448.716 161.328Z" fill="#FAE0B2"/>
<path d="M534.451 219.181C513.294 183.277 492.193 170.625 473.341 165.397C480.633 172.943 488.025 182.651 495.425 195.208C529.304 252.7 511.47 338.579 484.73 362.444C461.017 383.608 389.651 409.168 322.598 383.919C329.492 391.548 336.268 395.635 336.268 395.635C409.683 439.749 497.016 410.282 523.756 386.417C550.496 362.552 568.33 276.673 534.451 219.181Z" fill="#F7CC7F"/>
<path d="M372.113 248.712L365.98 267.11L384.67 259.759L372.113 248.712Z" fill="#F79C8D"/>
<path d="M391.38 193.964C390.134 194.015 386.72 195.154 381.727 204.558C375.351 216.567 366.033 252.843 366.033 252.843L393.848 263.166L397.422 255.595L403.307 197.302C403.307 197.302 391.725 193.95 391.38 193.964Z" fill="#042A44"/>
<path d="M428.149 188.734C420.195 188.744 400.515 191.058 391.38 193.966C391.38 193.966 384.67 251.445 397.422 295.122C400.276 304.899 395.061 335.652 395.061 335.652L477.482 334.568C477.482 334.568 467.718 260.222 471.396 248.213C475.074 236.204 475.162 194.352 475.162 194.352C475.162 194.352 474.597 194.265 456.644 191.172C448.27 189.729 436.641 188.723 428.149 188.734Z" fill="#07345A"/>
<path d="M437.754 442.338C437.754 442.338 435.931 463.312 432.578 469.12C429.225 474.928 432.755 484.803 432.931 486.158C433.107 487.513 439.989 489.449 450.929 488.287C461.869 487.125 461.692 484.609 460.81 480.543C459.928 476.477 454.105 471.25 453.752 467.378C453.399 463.506 457.104 449.566 457.104 449.566L437.754 442.338Z" fill="#F7A491"/>
<path d="M404.361 318.341C404.361 318.341 347.465 315.192 334.76 322.861C322.055 330.53 337.058 346.277 337.058 346.277C337.058 346.277 383.377 366.347 460.922 370.807C479.285 371.863 480.868 323.089 477.434 319.053C474 315.017 404.361 318.341 404.361 318.341Z" fill="#327F6B"/>
<path d="M452.293 489.915C463.558 488.719 462.166 483.204 461.257 479.017C460.688 476.396 457.456 473.305 455.53 470.382C454.523 471.181 452.885 472.593 447.993 474.033C442.913 475.529 435.949 472.569 431.511 470.715C429.929 476.581 429.857 484.062 430.005 485.197C430.187 486.592 441.028 491.111 452.293 489.915Z" fill="#355389"/>
<path d="M446.075 358.906C443.802 376.049 432.548 461.388 432.548 461.388L458.662 464.615C458.662 464.615 490.776 353.227 489.129 336.19C487.482 319.153 475.461 317.719 475.461 317.719C475.461 317.719 452.092 313.527 446.075 358.906Z" fill="#3C8F7C"/>
<path d="M422.524 178.325L420.954 189.977C420.954 189.977 417.436 206.765 421.962 210.001C426.488 213.237 441.211 189.498 441.211 189.498L439.656 159.972L422.524 178.325Z" fill="#F7A491"/>
<path d="M440.158 169.541C436.419 179.612 427.513 185.803 421.192 188.204L422.524 178.325L439.656 159.972L440.158 169.541Z" fill="#F47458"/>
<path d="M476.06 200.742C468.354 197.861 464.584 267.061 463.545 295.544C449.898 296.852 426.112 295.553 420.189 295.11C417.403 294.901 410.98 292.558 408.21 292.196C405.371 291.825 402.798 291.632 401.402 291.874C400.89 291.963 386.665 297.76 385.448 299.032C383.939 300.609 379.859 304.585 380.548 306.305C381.236 308.025 388.395 301.514 388.395 301.514L391.893 299.558C387.538 303.798 379.232 309.381 380.428 311.414C381.595 313.397 389.088 307.731 394.428 303.869C389.848 307.992 384.157 315.37 385.468 316.52C386.646 317.554 393.119 309.012 400.036 306.552C402.599 305.641 405.155 308.165 407.171 308.47C408.653 308.694 410.941 309.171 412.395 308.76L419.885 306.643C422.436 306.873 422.501 308.377 425.077 308.924C428.068 309.558 432.975 310.226 436.784 311.154C458.719 316.495 466.035 318.975 472.751 318.971C493.093 318.959 494.273 207.551 476.06 200.742Z" fill="#F7A491"/>
<path d="M490.685 265.709C492.129 236.534 491.917 200.573 475.506 194.438C469.031 192.017 457.616 206.573 459.669 266.301C468.43 267.022 481.292 267.603 490.685 265.709Z" fill="#07345A"/>
<path d="M398.874 253.173H400.547L425.694 314.761L423.962 314.499L398.874 253.173Z" fill="#F79C8D"/>
<path d="M361.389 460.277C361.389 460.277 363.668 467.558 359.588 472.373C355.508 477.188 338.553 481.912 336.328 484.52C334.103 487.128 334.271 489.349 334.271 489.349L381.856 488.044L381.338 473.721L379.147 463.429L361.389 460.277Z" fill="#F7A491"/>
<path d="M356.628 474.776C356.628 474.776 368.855 479.704 374.761 476.786C380.667 473.868 380.489 473.06 382.198 474.148C383.907 475.236 384.519 488.662 384.519 488.662L331.01 490.23C327.286 490.145 325.405 487.411 328.43 485.071C330.504 483.467 332.901 482.394 334.263 481.615C338.449 479.223 356.628 474.776 356.628 474.776Z" fill="#355389"/>
<path d="M363.193 331.782C359.515 324.068 351.15 314.025 336.432 320.074C322.395 325.843 318.627 340.021 323.056 354.54C327.485 369.059 356.642 454.406 357.658 466.141L380.938 466.295C380.938 466.295 376.707 398.715 375.669 382.38C374.67 366.662 369.558 345.132 363.193 331.782Z" fill="#3C8F7C"/>
<path d="M325.401 253.173H403.219C405.278 253.173 407.133 254.417 407.914 256.322L431.875 314.762H474.777C475.977 314.762 476.949 315.733 476.949 316.932C476.949 318.131 475.977 319.103 474.777 319.103H352.675C349.318 319.103 346.274 317.132 344.899 314.07L320.772 260.325C319.265 256.968 321.721 253.173 325.401 253.173Z" fill="#F47458"/>
<path d="M367.298 287.202C367.824 289.827 370.113 291.583 372.412 291.123C374.711 290.663 376.148 288.163 375.622 285.538C375.096 282.913 372.807 281.157 370.508 281.617C368.209 282.077 366.772 284.577 367.298 287.202Z" fill="white"/>
<path d="M418.614 117.966C418.614 117.966 426.661 108.675 433.947 119.206C433.947 119.206 439.049 116.03 442.959 121.099C442.959 121.099 452.29 117.824 455.226 131.864C455.226 131.864 460.051 130.725 460.955 136.482C461.86 142.239 459.096 146.229 459.096 146.229C459.096 146.229 461.922 148.155 460.921 153.531C460.069 158.103 456.358 158.96 456.358 158.96C456.358 158.96 455.692 166.629 452.49 169.074C449.288 171.52 444.737 170.621 444.737 170.621C444.737 170.621 443.73 174.808 439.856 174.615C435.982 174.422 431.042 170.964 426.8 172.813C422.558 174.661 411.274 173.422 411.274 173.422C411.274 173.422 398.438 168.389 401.623 155.361C401.623 155.361 394.741 149.69 400.203 142.266C400.203 142.266 395.471 131.251 403.53 124.261C411.588 117.271 418.614 117.966 418.614 117.966Z" fill="#07345A"/>
<path d="M427.098 130.008C418.014 127.333 408.748 133.706 407.799 142.989C407.387 147.024 407.078 152.088 407.226 157.603C407.585 170.867 415.029 183.455 421.048 183.183C427.066 182.911 443.31 173.58 443.062 154.738C442.909 143.105 436.632 132.815 427.098 130.008Z" fill="#F7A491"/>
<path d="M438.695 156.426C438.827 159.35 440.872 161.632 443.263 161.524C445.654 161.416 447.485 158.958 447.352 156.035C447.22 153.112 445.175 150.829 442.785 150.937C440.394 151.045 438.563 153.503 438.695 156.426Z" fill="#F7A491"/>
<path d="M400.728 124.593C394.734 129.798 392.894 137.379 396.617 141.526C400.341 145.672 408.219 144.813 414.213 139.608C420.207 134.402 422.047 126.82 418.324 122.674C414.6 118.529 406.722 119.387 400.728 124.593Z" fill="#07345A"/>
<path d="M414.931 168.719L426.573 168.002C426.573 168.002 426.578 172.44 421.467 172.904C415.235 173.468 414.931 168.719 414.931 168.719Z" fill="white"/>
<path d="M286.364 92.1509C283.281 90.7748 278.483 88.6328 278.483 88.6328L270.494 94.6693L260.78 88.1302C260.78 88.1302 256 92.7668 254.135 94.5759" stroke="#50BFA5" stroke-width="5"/>
<path d="M272.283 296.857C272.283 296.857 272.08 296.699 271.737 296.429" stroke="#08355A" stroke-width="5"/>
<path d="M589.6 395.018C589.106 390.658 588.52 386.198 586.496 382.307C584.035 377.576 579.713 374.162 575.936 370.402C568.879 363.376 563.448 354.72 560.188 345.302C557.668 338.019 556.411 330.26 552.938 323.382C550.817 319.183 547.925 315.428 545.516 311.388C539.822 301.838 536.723 290.551 529.002 282.558C527.516 292.249 530.452 302.534 536.829 309.971C538.731 312.189 540.935 314.188 542.384 316.726C545.014 321.334 544.775 326.956 545.083 332.255C545.662 342.214 548.468 352.037 553.237 360.794C558.303 370.096 565.616 378.38 568.324 388.624C570.354 396.301 569.75 404.911 574.077 411.564C574.546 412.285 575.083 413.009 575.198 413.862C575.263 414.341 575.188 414.827 575.113 415.305C575.016 415.923 574.919 416.541 574.822 417.159C573.837 423.442 572.82 431.436 578.219 436.138C581.961 439.397 586.777 439.47 589.464 435.141C592.17 430.782 591.93 424.403 591.729 419.498C591.394 411.329 590.519 403.138 589.6 395.018Z" fill="#3C8F7C"/>
<path d="M599.325 389.964C597.224 382.691 593.965 375.764 592.331 368.372C590.746 361.202 590.733 353.789 590.728 346.445C590.722 338.398 590.717 330.35 590.711 322.303C590.707 317.293 590.702 312.256 589.874 307.315C588.093 296.684 582.568 286.854 581.632 276.115C581.227 271.471 581.697 266.778 581.186 262.145C580.894 259.498 580.215 256.796 578.99 254.448C577.672 251.923 574.032 252.033 572.838 254.62C570.154 260.435 568.453 266.72 569.537 272.95C570.187 276.687 571.806 280.172 573.014 283.767C578.396 299.776 575.539 317.498 579.703 333.868C580.96 338.809 582.86 343.655 583.081 348.749C583.61 360.942 574.505 372.079 575.34 384.254C576.025 394.236 583.202 402.498 586.214 412.038C587.9 417.379 588.261 423.078 590.068 428.379C591.472 432.497 594.735 437.499 599.806 436.249C604.62 435.062 603.165 431.133 602.95 427.38C602.223 414.685 602.907 402.367 599.325 389.964Z" fill="#327F6B"/>
<path d="M610.343 396.629C610.131 392.85 609.493 389.05 610.022 385.302C610.468 382.137 611.728 379.154 612.628 376.087C614.314 370.34 614.732 364.308 615.14 358.332C615.882 347.469 616.625 336.605 617.367 325.742C618.521 308.856 619.681 291.921 622.838 275.294C623.715 270.677 624.699 265.676 622.624 261.461C622.187 260.573 621.325 259.629 620.382 259.925C619.71 260.136 619.381 260.876 619.137 261.538C612.236 280.294 609.626 300.488 601.923 318.928C600.078 323.345 597.931 327.692 596.976 332.384C595.829 338.018 596.459 343.838 596.607 349.586C596.819 357.83 596.017 366.138 593.74 374.063C592.549 378.209 590.954 382.262 590.301 386.527C589.487 391.845 590.171 397.262 590.68 402.618C591.659 412.915 591.991 423.273 591.673 433.612C591.486 439.69 596.617 439.531 600.016 435.797C602.393 433.186 602.371 430.319 603.185 427.068C605.857 416.396 610.992 408.2 610.343 396.629Z" fill="#3C8F7C"/>
<path d="M578.287 413.111C573.75 405.821 564.712 401.676 561.812 393.591C561.074 391.534 560.787 389.321 559.885 387.33C557.883 382.908 553.33 380.409 548.855 378.375C548.233 378.092 547.527 378.543 547.518 379.227C547.503 380.314 548.018 381.351 548.919 381.957C552.366 384.278 554.987 387.826 556.153 391.824C557.535 396.562 556.936 401.756 558.654 406.383C560.096 410.267 563.066 413.442 564.461 417.344C565.736 420.911 565.602 424.807 566.201 428.548C566.8 432.289 568.462 436.257 571.897 437.84C584.325 443.567 581.218 417.821 578.287 413.111Z" fill="#327F6B"/>
<path d="M629.976 410.705C629.782 414.229 630.321 417.924 628.942 421.172C628.06 423.25 626.473 424.93 625.17 426.773C620.595 433.244 618.936 442.412 611.907 446.055C611.443 446.295 610.925 446.51 610.412 446.414C609.692 446.28 609.22 445.586 608.93 444.911C607.207 440.896 609.141 436.372 610.286 432.155C610.486 431.417 610.654 430.595 610.302 429.916C609.915 429.17 609.033 428.847 608.431 428.261C607.23 427.093 607.344 425.159 607.582 423.499C608.178 419.351 609.015 415.239 610.089 411.189C610.698 408.892 611.401 406.576 612.724 404.604C614.181 402.433 616.296 400.813 618.277 399.109C627.03 391.579 633.735 381.682 637.488 370.751C638.3 368.385 639.025 365.886 640.703 364.033C642.381 362.18 645.372 361.226 647.416 362.664C648.87 363.687 642.913 373.268 642.219 374.417C640.235 377.7 640.209 380.557 639.087 384.203C636.339 393.137 630.502 401.133 629.976 410.705Z" fill="#3C8F7C"/>
<path d="M623.048 414.779C624.348 411.417 625.66 408.011 626.088 404.431C626.564 400.451 625.932 396.381 626.612 392.431C627.486 387.353 630.447 382.886 631.913 377.947C632.971 374.38 633.231 370.631 633.867 366.965C635.685 356.481 640.614 346.236 639.199 335.689C638.891 333.395 637.857 330.721 635.58 330.33C633.519 329.976 631.642 331.861 631.106 333.886C630.57 335.911 630.97 338.048 631.117 340.138C631.527 345.967 629.864 351.921 626.494 356.69C623.256 361.272 618.558 364.722 615.644 369.517C612.07 375.399 611.584 382.579 609.76 389.219C606.133 402.423 597.036 413.941 595.378 427.535C594.718 432.944 595.988 439.52 600.98 441.681C615.419 447.931 619.777 423.237 623.048 414.779Z" fill="#327F6B"/>
<path d="M597.808 431.538H595.498H564.672C562.406 431.538 560.735 433.657 561.259 435.866L573.338 486.802C573.714 488.386 575.126 489.504 576.751 489.504H595.498H597.808H616.555C618.18 489.504 619.592 488.386 619.968 486.802L632.047 435.866C632.571 433.657 630.9 431.538 628.634 431.538H597.808Z" fill="#F47458"/>
<path d="M128.294 201.588C128.233 201.594 128.171 201.598 128.109 201.6" stroke="#F48C7F" stroke-width="2" stroke-linecap="round" stroke-linejoin="bevel"/>
</g>
</g>
<defs>
<clipPath id="clip0_9053_34795">
<rect width="800" height="500" fill="white"/>
</clipPath>
</defs>
</svg>
